# File created by Blade
# Date/Time:  Wed Jan 21 17:21:31 2015
# Frame Rate: 120.000 fps
#------------------------------------------------------
:FULLY-SPECIFIED
:DEGREES
194
root 19.042834 35.455116 -17.144363 -179.659459 6.739803 -179.284770
Spine 25.408917 10.507690 -2.904218
Head 20.218654 -4.705043 5.650145
LeftShoulder -4.310238 -21.346727 -0.675981
LeftArm -11.513769 11.744097 -77.614062
LeftForeArm 2.590287 0.000000 7.845192
LeftHand 0.005189 -0.000000 1.573529
LeftHandThumb1 -26.253704 0.000000 33.147579
RightShoulder -4.966741 -11.272587 8.185637
RightArm 19.714583 -8.600747 68.015119
RightForeArm -20.946479 0.000000 17.216176
RightHand -2.559728 -0.000000 -2.525217
RightHandThumb1 -24.326973 -0.000000 -32.862282
LeftUpLeg -26.376504 6.188643 -3.860277
LeftLeg 30.679703 -0.000000 -0.000000
LeftFoot -24.110084 31.182156 -13.080043
LeftToeBase 17.356873 -0.000000 -0.000000
RightUpLeg 0.147839 -14.590251 7.884055
RightLeg 9.619153 -0.000000 -0.000000
RightFoot -28.109073 -21.578327 17.238066
RightToeBase 22.908922 -0.000000 -0.000000
195
root 19.062630 35.456595 -17.143304 -179.651587 6.753202 -179.370237
Spine 25.741589 10.642737 -2.849997
Head 20.106023 -4.870072 5.593213
LeftShoulder -4.209632 -21.400293 -0.736307
LeftArm -11.435620 11.739878 -77.691613
LeftForeArm 3.051378 0.000000 7.944295
LeftHand 0.021385 0.000000 1.481442
LeftHandThumb1 -26.253704 0.000000 33.147579
RightShoulder -4.839326 -11.116160 7.918319
RightArm 20.027755 -8.611169 67.894180
RightForeArm -21.019503 -0.000000 17.330243
RightHand -2.286780 -0.000000 -2.672503
RightHandThumb1 -24.326973 -0.000000 -32.862282
LeftUpLeg -26.524473 6.196125 -4.322274
LeftLeg 29.350355 -0.000000 -0.000000
LeftFoot -23.321358 30.399763 -12.909286
LeftToeBase 17.552271 -0.000000 -0.000000
RightUpLeg 0.062588 -14.491078 7.836528
RightLeg 9.771865 -0.000000 -0.000000
RightFoot -28.204667 -21.623923 17.078683
RightToeBase 23.172520 -0.000000 -0.000000
196
root 19.079830 35.454306 -17.146163 -179.649881 6.796134 -179.429388
Spine 26.072349 10.797355 -2.749025
Head 20.016007 -4.991419 5.511424
LeftShoulder -4.075044 -21.476071 -0.825701
LeftArm -11.420674 11.648726 -77.752631
LeftForeArm 3.485361 -0.000000 8.027454
LeftHand 0.160172 0.000000 1.392674
LeftHandThumb1 -26.253704 0.000000 33.147579
RightShoulder -4.747247 -11.047884 7.633340
RightArm 20.486113 -8.706847 67.731274
RightForeArm -21.086461 0.000000 17.349546
RightHand -2.129625 -0.000000 -2.807825
RightHandThumb1 -24.326973 -0.000000 -32.862282
LeftUpLeg -26.619625 6.149549 -4.718945
LeftLeg 27.955783 -0.000000 -0.000000
LeftFoot -22.407477 29.668650 -12.799672
LeftToeBase 17.730372 -0.000000 -0.000000
RightUpLeg -0.048911 -14.383193 7.807958
RightLeg 10.004347 -0.000000 -0.000000
RightFoot -28.353213 -21.620420 17.158946
RightToeBase 23.207960 -0.000000 -0.000000
197
root 19.104264 35.446925 -17.146389 -179.606780 6.895932 -179.445143
Spine 26.350140 10.967143 -2.645321
Head 19.922051 -5.085118 5.445707
LeftShoulder -3.972532 -21.568465 -0.853921
LeftArm -11.442652 11.535386 -77.877569
LeftForeArm 3.954847 -0.000000 8.095472
LeftHand 0.169264 -0.000000 1.514975
LeftHandThumb1 -26.253704 0.000000 33.147579
RightShoulder -4.621558 -10.954458 7.381777
RightArm 20.911565 -8.704807 67.580985
RightForeArm -21.364715 -0.000000 17.411034
RightHand -1.974920 -0.000000 -2.770232
RightHandThumb1 -24.326973 -0.000000 -32.862282
LeftUpLeg -26.727182 6.147017 -5.043275
LeftLeg 26.482822 -0.000000 -0.000000
LeftFoot -21.430476 29.139552 -12.772055
LeftToeBase 17.592965 -0.000000 -0.000000
RightUpLeg -0.232242 -14.394712 7.830772
RightLeg 10.293992 -0.000000 -0.000000
RightFoot -28.489286 -21.464389 17.205442
RightToeBase 23.239567 -0.000000 -0.000000
198
root 19.130087 35.435447 -17.153296 -179.579077 6.985961 -179.439260
Spine 26.646168 11.098914 -2.535450
Head 19.813749 -5.154065 5.385690
LeftShoulder -3.916072 -21.572725 -0.883322
LeftArm -11.410592 11.438043 -77.942918
LeftForeArm 4.257118 -0.000000 8.262238
LeftHand 0.167401 0.000000 1.420320
LeftHandThumb1 -26.253704 0.000000 33.147579
RightShoulder -4.455759 -10.808751 7.147682
RightArm 21.294735 -8.771854 67.376838
RightForeArm -21.389623 -0.000000 17.408046
RightHand -1.640897 0.000000 -2.761028
RightHandThumb1 -24.326973 -0.000000 -32.862282
LeftUpLeg -26.780418 6.024693 -5.280214
LeftLeg 24.966528 -0.000000 -0.000000
LeftFoot -20.526713 28.731108 -12.819095
LeftToeBase 17.662691 -0.000000 -0.000000
RightUpLeg -0.397562 -14.318152 7.879654
RightLeg 10.604945 -0.000000 -0.000000
RightFoot -28.659310 -21.397784 17.259818
RightToeBase 23.247585 -0.000000 -0.000000
199
root 19.154022 35.418759 -17.167778 -179.601996 7.046036 -179.414818
Spine 26.995267 11.188634 -2.383476
Head 19.692083 -5.219253 5.324470
LeftShoulder -3.858061 -21.593425 -0.920931
LeftArm -11.388414 11.227565 -78.019776
LeftForeArm 4.518042 -0.000000 8.395524
LeftHand 0.160515 -0.000000 1.449092
LeftHandThumb1 -26.253704 0.000000 33.147579
RightShoulder -4.271696 -10.613484 6.913551
RightArm 21.606970 -8.828065 67.159421
RightForeArm -21.341069 -0.000000 17.449890
RightHand -1.338419 -0.000000 -2.546174
RightHandThumb1 -24.326973 -0.000000 -32.862282
LeftUpLeg -26.737925 5.832350 -5.456996
LeftLeg 23.405135 -0.000000 -0.000000
LeftFoot -19.687792 28.464785 -12.894603
LeftToeBase 17.338839 -0.000000 -0.000000
RightUpLeg -0.513497 -14.310665 7.922316
RightLeg 10.948278 -0.000000 -0.000000
RightFoot -28.863343 -21.383988 17.262976
RightToeBase 23.043382 -0.000000 -0.000000
200
root 19.180302 35.399519 -17.187628 -179.663999 7.166594 -179.363964
Spine 27.384465 11.293436 -2.233883
Head 19.570603 -5.267423 5.283747
LeftShoulder -3.842697 -21.617615 -0.931871
LeftArm -11.381288 11.152192 -78.122189
LeftForeArm 4.744570 -0.000000 8.529653
LeftHand 0.151594 -0.000000 1.538320
LeftHandThumb1 -26.253704 0.000000 33.147579
RightShoulder -4.069579 -10.400032 6.717381
RightArm 21.934643 -8.879781 66.918225
RightForeArm -21.547321 0.000000 17.468184
RightHand -1.220129 -0.000000 -2.540038
RightHandThumb1 -24.326973 -0.000000 -32.862282
LeftUpLeg -26.614267 5.615867 -5.541382
LeftLeg 21.822003 -0.000000 -0.000000
LeftFoot -18.842297 28.306934 -12.684888
LeftToeBase 17.544406 -0.000000 -0.000000
RightUpLeg -0.589336 -14.271920 7.982237
RightLeg 11.327806 -0.000000 -0.000000
RightFoot -29.059722 -21.228947 17.289695
RightToeBase 23.188289 -0.000000 -0.000000
201
root 19.205772 35.373346 -17.202995 -179.706101 7.387530 -179.303297
Spine 27.763882 11.460978 -2.091903
Head 19.401713 -5.268540 5.259131
LeftShoulder -3.826208 -21.619338 -0.909445
LeftArm -11.377898 10.930941 -78.236370
LeftForeArm 5.078452 -0.000000 8.710692
LeftHand 0.096868 -0.000000 1.581105
LeftHandThumb1 -26.253704 0.000000 33.147579
RightShoulder -3.821484 -10.155718 6.503818
RightArm 22.252501 -9.041865 66.619283
RightForeArm -21.538608 -0.000000 17.560669
RightHand -1.006031 -0.000000 -2.669404
RightHandThumb1 -24.326973 -0.000000 -32.862282
LeftUpLeg -26.500366 5.422407 -5.591691
LeftLeg 20.191023 -0.000000 -0.000000
LeftFoot -18.262720 28.394640 -12.811894
LeftToeBase 17.469072 -0.000000 -0.000000
RightUpLeg -0.762202 -14.083848 8.064339
RightLeg 11.849369 -0.000000 -0.000000
RightFoot -29.349837 -21.148640 17.307896
RightToeBase 23.364491 -0.000000 -0.000000
202
root 19.234529 35.343310 -17.228025 -179.783602 7.604248 -179.231670
Spine 28.177492 11.622351 -1.962003
Head 19.229097 -5.280563 5.275916
LeftShoulder -3.819439 -21.622174 -0.871376
LeftArm -11.366295 10.794173 -78.353147
LeftForeArm 5.312066 -0.000000 8.853109
LeftHand 0.039636 -0.000000 1.640686
LeftHandThumb1 -26.253704 0.000000 33.147579
RightShoulder -3.621434 -9.927998 6.377893
RightArm 22.609145 -9.183718 66.269849
RightForeArm -21.500276 -0.000000 17.654893
RightHand -0.912399 -0.000000 -2.320907
RightHandThumb1 -24.326973 -0.000000 -32.862282
LeftUpLeg -26.323917 5.147474 -5.550134
LeftLeg 18.589408 -0.000000 -0.000000
LeftFoot -17.591140 28.579380 -12.656719
LeftToeBase 16.926674 -0.000000 -0.000000
RightUpLeg -0.874750 -13.858908 8.153290
RightLeg 12.354070 -0.000000 -0.000000
RightFoot -29.670599 -21.185653 17.240455
RightToeBase 23.475179 -0.000000 -0.000000
203
root 19.263069 35.308949 -17.254229 -179.853813 7.819827 -179.091669
Spine 28.582439 11.746466 -1.757857
Head 19.080626 -5.259076 5.290530
LeftShoulder -3.839150 -21.607098 -0.842137
LeftArm -11.352385 10.717008 -78.487165
LeftForeArm 5.513798 -0.000000 9.032876
LeftHand -0.050121 -0.000000 1.730078
LeftHandThumb1 -26.253704 0.000000 33.147579
RightShoulder -3.408140 -9.819536 6.313969
RightArm 23.036089 -9.855191 65.489112
RightForeArm -20.948628 -0.000000 17.957722
RightHand -1.139262 -0.000000 -2.479290
RightHandThumb1 -24.326973 -0.000000 -32.862282
LeftUpLeg -26.150250 4.823010 -5.408652
LeftLeg 17.026797 -0.000000 -0.000000
LeftFoot -17.016277 28.907749 -12.568456
LeftToeBase 16.781750 -0.000000 -0.000000
RightUpLeg -1.005125 -13.741011 8.304180
RightLeg 12.899520 -0.000000 -0.000000
RightFoot -29.954120 -21.081209 17.295471
RightToeBase 23.350452 -0.000000 -0.000000
204
root 19.295688 35.271956 -17.283629 -179.950496 8.108413 -178.962187
Spine 29.001462 11.909626 -1.610884
Head 18.940497 -5.226382 5.332053
LeftShoulder -3.839693 -21.522546 -0.809893
LeftArm -11.247179 10.668081 -78.594191
LeftForeArm 5.701382 -0.000000 9.078223
LeftHand 0.042905 0.000000 1.863305
LeftHandThumb1 -26.253704 0.000000 33.147579
RightShoulder -3.107430 -9.587669 6.234836
RightArm 23.372538 -10.153283 64.991767
RightForeArm -20.703495 -0.000000 18.031071
RightHand -0.917731 -0.000000 -2.052666
RightHandThumb1 -24.326973 -0.000000 -32.862282
LeftUpLeg -25.948340 4.566443 -5.244412
LeftLeg 15.494492 -0.000000 -0.000000
LeftFoot -16.500434 29.261154 -12.645235
LeftToeBase 17.030917 -0.000000 -0.000000
RightUpLeg -1.129574 -13.477476 8.454720
RightLeg 13.506724 -0.000000 -0.000000
RightFoot -30.279946 -21.049592 17.338023
RightToeBase 23.223968 -0.000000 -0.000000
205
root 19.323886 35.230452 -17.304097 -179.993260 8.494596 -178.853942
Spine 29.401235 12.180792 -1.485795
Head 18.718908 -5.163415 5.390526
LeftShoulder -3.839342 -21.568695 -0.752033
LeftArm -11.235029 10.633542 -78.726761
LeftForeArm 5.959668 -0.000000 9.140376
LeftHand 0.128787 -0.000000 1.845802
LeftHandThumb1 -26.253704 0.000000 33.147579
RightShoulder -2.904337 -9.396015 6.173992
RightArm 23.841238 -10.127376 64.659583
RightForeArm -20.926732 -0.000000 18.068791
RightHand -0.905606 -0.000000 -1.823156
RightHandThumb1 -24.326973 -0.000000 -32.862282
LeftUpLeg -25.814321 4.412639 -5.086223
LeftLeg 13.991125 -0.000000 -0.000000
LeftFoot -15.855417 29.705965 -12.550170
LeftToeBase 17.056357 -0.000000 -0.000000
RightUpLeg -1.380452 -13.081113 8.596162
RightLeg 14.222333 -0.000000 -0.000000
RightFoot -30.736617 -21.104434 17.433889
RightToeBase 23.300618 -0.000000 -0.000000
206
root 19.356657 35.186624 -17.342906 -180.152897 8.817562 -178.747233
Spine 29.899568 12.357870 -1.365781
Head 18.554900 -5.083869 5.429555
LeftShoulder -3.829021 -21.501619 -0.715083
LeftArm -11.113274 10.742429 -78.827323
LeftForeArm 6.069905 -0.000000 9.175153
LeftHand 0.078685 -0.000000 1.845473
LeftHandThumb1 -26.253704 0.000000 33.147579
RightShoulder -2.738167 -9.390430 6.180314
RightArm 24.588939 -10.215799 64.171687
RightForeArm -21.070143 -0.000000 17.925112
RightHand -0.785016 -0.000000 -2.010572
RightHandThumb1 -24.326973 -0.000000 -32.862282
LeftUpLeg -25.532746 4.197354 -4.891971
LeftLeg 12.550179 -0.000000 -0.000000
LeftFoot -15.242278 30.077616 -12.539539
LeftToeBase 17.054527 -0.000000 -0.000000
RightUpLeg -1.463754 -12.878876 8.693315
RightLeg 14.909309 -0.000000 -0.000000
RightFoot -31.165071 -21.003633 17.537012
RightToeBase 23.289733 -0.000000 -0.000000
